FFmpeg version SVN-r25716, Copyright (c) 2000-2010 the FFmpeg developers  built on Nov 10 2010 12:23:18 with gcc 4.1.2 20080704 (Red Hat 4.1.2-48)  configuration: --enable-libmp3lame --enable-shared --disable-mmx --arch=x86_64  libavutil     50.33. 0 / 50.33. 0  libavcore      0.12. 1 /  0.12. 1  libavcodec    52.94. 4 / 52.94. 4  libavformat   52.84. 0 / 52.84. 0  libavdevice   52. 2. 2 / 52. 2. 2  libavfilter    1.59. 0 /  1.59. 0  libswscale     0.12. 0 /  0.12. 0Seems stream 0 codec frame rate differs from container frame rate: 1000.00 (1000/1) -> 12.05 (1000/83)Input #0, mov,mp4,m4a,3gp,3g2,mj2, from '/RAID10/data/converted_video_files/25631.mov':  Metadata:    major_brand     : qt      minor_version   : 537199360    compatible_brands: qt    Duration: 00:00:20.25, start: 0.000000, bitrate: 1588 kb/s    Stream #0.0(eng): Video: mpeg4, yuv420p, 1124x600 [PAR 1:1 DAR 281:150], 1587 kb/s, 12.05 fps, 12.05 tbr, 1k tbn, 1k tbc[buffer @ 0x1a061f50] w:1124 h:600 pixfmt:yuv420pOutput #0, flv, to '/RAID10/data/converted_video_files/25631.flv':  Metadata:    encoder         : Lavf52.84.0    Stream #0.0(eng): Video: flv, yuv420p, 1124x600 [PAR 1:1 DAR 281:150], q=2-31, 600 kb/s, 1k tbn, 24 tbcStream mapping:  Stream #0.0 -> #0.0Press [q] to stop encodingframe=   11 fps=  0 q=19.1 size=     237kB time=0.87 bitrate=2221.9kbits/s    frame=   28 fps= 26 q=31.0 size=     356kB time=2.29 bitrate=1273.8kbits/s    frame=   47 fps= 30 q=31.0 size=     484kB time=3.87 bitrate=1022.6kbits/s    frame=   63 fps= 30 q=31.0 size=     594kB time=5.21 bitrate= 934.9kbits/s    frame=   80 fps= 30 q=31.0 size=     689kB time=6.58 bitrate= 857.6kbits/s    frame=  101 fps= 32 q=31.0 size=     832kB time=8.33 bitrate= 818.0kbits/s    frame=  119 fps= 33 q=31.0 size=     945kB time=9.83 bitrate= 787.6kbits/s    frame=  138 fps= 33 q=31.0 size=    1107kB time=11.42 bitrate= 794.3kbits/s    frame=  156 fps= 33 q=31.0 size=    1222kB time=12.92 bitrate= 775.2kbits/s    frame=  175 fps= 34 q=31.0 size=    1354kB time=14.50 bitrate= 764.8kbits/s    frame=  193 fps= 34 q=24.8 size=    1480kB time=15.96 bitrate= 759.9kbits/s    frame=  209 fps= 34 q=31.0 size=    1584kB time=17.29 bitrate= 750.7kbits/s    frame=  229 fps= 34 q=24.8 size=    1731kB time=18.96 bitrate= 748.1kbits/s    frame=  244 fps= 34 q=31.0 Lsize=    1826kB time=20.21 bitrate= 740.3kbits/s    video:1822kB audio:0kB global headers:0kB muxing overhead 0.220473%